<svg xmlns="http://www.w3.org/2000/svg" viewBox="0 0 52.917 52.917" height="200" width="200"><path d="M13.05.772a7.617 12.16 0 00-5.022 3.014 7.617 12.16 0 00-.71 17.158 7.617 12.16 0 005.73 4.15h12.465v10.234a12.16 5.613 0 00-4.708 1.178 12.16 5.613 0 00-4.15 4.222s0 0 0 0c-.205 1.434.8 6.407 3.011 7.573 4.422 2.332 12.103 2.568 17.157.528l.01-.004c5.05-2.043 4.189-3.744 4.144-8.096a12.16 5.613 0 00-3.014-3.699 12.16 5.613 0 00-5.835-1.702V25.094H44.25c1.845 0 3.628-1.07 5.017-3.01 3.165-4.422 3.486-12.103.717-17.158l-.006-.01C48.533 2.283 46.446.773 44.253.772c-.313 0-.626.03-.936.092H13.983a7.617 12.16 0 00-.934-.092z" fill="none" stroke="#999" stroke-width="1.99996022" stroke-linecap="round"/><path d="M46.262 1.203zm.764.405zm1.757 1.55zm.625.824zm.577.944zm.396.793c.077.166.15.334.221.505.022.054.046.107.067.16a14.884 14.884 0 01-.288-.665zm.541 1.343l.043.131a15.813 15.813 0 01.37 1.277l.05.193a16.254 16.254 0 00-.463-1.6zm.462 1.601zm.128.597a19.045 19.045 0 00.002 0h-.002zm.347 4.192zm-.02.528zm-38.791 3.596v7.518H44.25c1.845 0 3.628-1.07 5.017-3.01.914-1.278 1.59-2.829 2.024-4.508H13.048z" fill="#f4e3d7"/><path d="M44.253.772c-.313 0-.626.03-.936.092h-30.27v16.712h38.245c1.067-4.135.662-9.056-1.307-12.65l-.006-.01C48.533 2.283 46.446.773 44.253.772z" fill="#fca"/><path d="M44.253.772c-.313 0-.626.03-.936.092h-30.27V9.26h38.467c-.308-1.552-.815-3.03-1.53-4.334l-.005-.01C48.533 2.283 46.446.773 44.253.772z" fill="#fff6d5"/><path d="M37.739 4.343c-1.296 0-2.435.369-3.27 1.054-.902.736-1.448 1.838-1.452 3.244v0c0 1.324-1.243 2.55-2.77 2.55a2.93 2.93 0 01-1.577-.451c-.722-.457-1.194-1.22-1.194-2.081 0-1.397 1.243-2.533 2.77-2.533.455 0 .886.097 1.284.287.478.23 1.068.063 1.317-.374a.823.823 0 00.032-.772h-.002a.923.923 0 00-.44-.432 5.08 5.08 0 00-2.19-.492c-2.603 0-4.722 1.937-4.722 4.316 0 1.377.71 2.607 1.815 3.397.802.576 1.81.919 2.907.919 1.525 0 2.881-.667 3.746-1.695.608-.723.97-1.563.974-2.622h.001v-.017a2.436 2.436 0 01.554-1.493c.478-.596 1.249-1.022 2.217-1.022 1.527 0 2.77 1.136 2.77 2.532 0 1.397-1.243 2.533-2.77 2.533-.906 0-1.713-.4-2.219-1.017a4.946 4.946 0 01-.973 1.659 4.932 4.932 0 003.192 1.141c2.602 0 4.721-1.937 4.721-4.316 0-2.379-2.119-4.315-4.721-4.315" fill="#999" stroke="#999" stroke-width="1.5"/><path d="M18.781 4.926a7.617 12.16 0 01-.717 17.158 7.617 12.16 0 01-10.747-1.14 7.617 12.16 0 01.711-17.158 7.617 12.16 0 0110.748 1.13" fill="#ccb6a5"/><path d="M37.739 4.342c-1.296 0-2.435.37-3.27 1.055-.902.736-1.448 1.838-1.452 3.243 0 .212-.034.42-.093.62h1.996c.028-.193.047-.392.047-.602h.001V8.64c.004-.522.201-1.053.554-1.492.478-.596 1.25-1.022 2.217-1.022 1.527 0 2.77 1.136 2.77 2.532 0 .208-.03.409-.083.602h1.983c.03-.197.05-.397.05-.602 0-2.379-2.118-4.316-4.72-4.316zm-7.492 0c-2.603 0-4.722 1.938-4.722 4.317 0 .204.017.405.048.601h1.983a2.323 2.323 0 01-.08-.601c0-1.397 1.243-2.533 2.77-2.533.455 0 .886.097 1.284.288.478.23 1.068.062 1.318-.375a.823.823 0 00.03-.772h-.001a.923.923 0 00-.44-.432 5.08 5.08 0 00-2.19-.492zM36.823 48.829c-5.054 2.04-12.735 1.804-17.157-.528-2.211-1.166-3.216-6.14-3.01-7.572.206-1.433 1.623.674 4.15-.347 5.05-2.042 20.12-4.654 20.171.347.045 4.352.906 6.053-4.144 8.096" fill="#fca"/><path d="M36.823 44.953a5.613 12.16 90 01-17.157-.528 5.613 12.16 90 011.14-7.919 5.613 12.16 90 0117.157.524 5.613 12.16 90 01-1.13 7.92" fill="#ccb6a5"/><path d="M25.513 25.093h6.615l.033 15.272s-.1 1.043-3.407 1.07c-3.218.024-3.207-1.07-3.207-1.07z" fill="#fca"/><path d="M35.085 18.314a1.67 1.67 0 01-.157 2.357 1.67 1.67 0 01-2.357-.156 1.67 1.67 0 01.156-2.357 1.67 1.67 0 012.357.155" fill="#ccb6a5"/><path d="M16.009 8.798a3.934 6.28 0 01-.37 8.861 3.934 6.28 0 01-5.55-.588 3.934 6.28 0 01.366-8.862 3.934 6.28 0 015.551.583" fill="#999"/><path d="M14.95 8.798a3.934 6.28 0 01-.37 8.861 3.934 6.28 0 01-5.55-.588 3.934 6.28 0 01.367-8.862 3.934 6.28 0 015.55.583" fill="#fca"/><path d="M25.573 9.26c.173 1.13.826 2.123 1.766 2.796.802.576 1.811.918 2.908.918 1.525 0 2.881-.666 3.746-1.694.488-.58.813-1.237.927-2.02h-1.996c-.313 1.063-1.393 1.931-2.677 1.931a2.931 2.931 0 01-1.577-.451 2.542 2.542 0 01-1.114-1.48h-1.983zm14.853 0c-.296 1.107-1.387 1.931-2.687 1.931-.905 0-1.713-.4-2.219-1.017a4.948 4.948 0 01-.973 1.659 4.932 4.932 0 003.192 1.141c2.378 0 4.347-1.62 4.67-3.714h-1.983z" fill="#fff6d5"/></svg>